<?xml version="1.0" standalone="no"?>
<!DOCTYPE svg PUBLIC "-//W3C//DTD SVG 20010904//EN"
 "http://www.w3.org/TR/2001/REC-SVG-20010904/DTD/svg10.dtd">
<svg version="1.0" xmlns="http://www.w3.org/2000/svg"
 width="200.000000pt" height="200.000000pt" viewBox="0 0 200.000000 200.000000"
 preserveAspectRatio="xMidYMid meet">
<metadata>
Created by potrace 1.14, written by Peter Selinger 2001-2017
</metadata>
<g transform="translate(0.000000,200.000000) scale(0.100000,-0.100000)"
fill="#000000" stroke="none">
<path d="M865 1935 c-101 -25 -197 -70 -248 -115 -19 -16 -40 -30 -46 -30 -6
0 -11 -7 -11 -16 0 -8 -4 -13 -9 -9 -5 3 -12 -4 -16 -15 -3 -11 -10 -20 -15
-20 -5 0 -12 -9 -15 -20 -4 -11 -11 -18 -16 -15 -5 4 -9 0 -9 -8 0 -7 -8 -22
-18 -33 -10 -11 -17 -25 -14 -32 2 -6 -1 -12 -6 -12 -8 0 -20 -24 -26 -52 0
-3 -4 -9 -8 -13 -4 -4 -4 -13 -1 -21 3 -8 0 -14 -7 -14 -7 0 -10 -7 -6 -15 3
-8 1 -15 -3 -15 -10 0 -9 -19 2 -37 6 -9 3 -11 -10 -6 -15 6 -16 4 -6 -8 8
-10 9 -19 3 -25 -14 -14 -18 -56 -9 -82 6 -15 5 -21 -1 -17 -6 3 -10 1 -10 -4
0 -6 4 -11 9 -11 5 0 7 -9 4 -20 -3 -11 -1 -20 5 -20 6 0 9 -8 8 -17 -2 -10 2
-21 8 -25 8 -5 7 -8 -2 -8 -7 0 -10 -5 -7 -10 4 -6 12 -7 18 -3 7 4 5 -2 -3
-12 -8 -10 -10 -16 -4 -12 7 4 15 0 18 -9 4 -10 2 -13 -6 -8 -7 5 -8 3 -2 -7
4 -8 9 -21 11 -29 1 -8 10 -20 19 -27 14 -10 14 -13 3 -13 -12 0 -12 -2 1 -9
8 -6 19 -7 25 -3 5 3 4 -2 -4 -11 -9 -11 -10 -17 -2 -17 6 0 11 -7 11 -16 0
-8 5 -12 11 -9 6 4 9 1 8 -6 -4 -22 21 -66 45 -78 11 -7 13 -9 4 -7 -12 4 -15
1 -11 -10 3 -7 9 -14 14 -14 5 0 9 -7 9 -15 0 -8 4 -15 9 -15 5 0 11 -9 14
-21 3 -12 10 -19 14 -16 5 3 10 -3 10 -14 1 -12 14 -32 28 -47 14 -14 23 -32
20 -40 -4 -11 -2 -12 8 -4 10 8 13 6 15 -9 4 -48 5 -49 19 -37 11 9 12 7 7 -7
-5 -13 -4 -16 5 -11 6 4 11 4 10 -1 -4 -22 2 -43 11 -38 6 3 10 -3 10 -14 0
-12 9 -30 19 -40 11 -11 17 -22 13 -25 -3 -3 0 -6 7 -6 7 0 9 -4 6 -10 -3 -5
-1 -10 5 -10 6 0 9 -4 6 -9 -3 -5 1 -11 9 -15 8 -3 15 -18 15 -33 0 -19 3 -24
9 -15 6 10 10 4 15 -21 4 -19 14 -38 22 -41 14 -5 14 -9 3 -23 -10 -12 -10
-14 -1 -9 8 5 12 0 12 -13 0 -12 5 -21 10 -21 6 0 10 -8 10 -17 0 -10 9 -33
20 -51 11 -18 18 -37 15 -43 -4 -5 2 -9 12 -10 10 0 13 -3 6 -6 -7 -2 -13 -9
-13 -14 0 -6 4 -8 9 -5 5 3 12 -1 15 -10 3 -8 2 -12 -4 -9 -13 8 -13 3 0 -30
5 -14 14 -24 19 -21 4 3 6 -6 3 -21 -4 -19 -2 -24 8 -18 9 6 10 3 1 -13 -7
-14 -8 -23 -1 -27 5 -3 10 -1 10 4 0 6 5 10 11 9 6 -2 21 31 34 72 59 195 146
369 330 658 140 218 217 366 240 457 15 63 25 161 17 170 -3 2 -6 23 -8 46
-11 116 -72 236 -169 335 -84 85 -151 124 -268 158 -126 37 -202 39 -312 11z
m178 -261 c15 1 27 -3 27 -9 0 -5 5 -3 10 5 7 11 10 11 10 2 0 -7 5 -10 10 -7
6 3 10 1 10 -6 0 -7 3 -9 7 -6 3 4 15 -1 26 -10 11 -10 17 -12 13 -5 -4 6 -3
12 3 12 5 0 13 -9 16 -20 3 -11 11 -20 16 -20 6 0 7 6 4 13 -4 6 0 5 7 -3 8
-8 20 -21 28 -29 12 -11 12 -12 1 -6 -10 6 -12 4 -7 -4 4 -6 15 -10 23 -9 9 2
17 -5 19 -17 2 -11 8 -21 14 -23 5 -2 8 -8 4 -13 -3 -5 2 -9 12 -9 11 0 15 -6
11 -20 -3 -13 0 -20 8 -20 7 0 12 -8 11 -17 -2 -10 4 -21 13 -25 13 -5 13 -7
-3 -7 -20 -1 -20 -1 0 -17 10 -8 12 -12 4 -8 -12 6 -13 5 -3 -7 7 -9 8 -20 3
-28 -10 -18 -1 -43 13 -34 6 4 7 1 1 -8 -4 -8 -8 -24 -9 -36 0 -12 -3 -24 -7
-28 -4 -4 -4 -13 -1 -21 3 -8 -1 -14 -8 -14 -11 0 -11 -3 1 -10 11 -7 11 -10
2 -10 -7 0 -11 -4 -8 -8 2 -4 1 -14 -5 -22 -6 -11 -9 -9 -9 11 0 28 -50 88
-75 90 -8 1 -20 2 -27 3 -6 0 -17 28 -25 61 -7 33 -15 70 -18 83 -5 20 -3 22
14 13 11 -6 21 -21 23 -33 4 -30 31 -30 33 0 4 49 -66 88 -113 63 -10 -4 -28
-11 -42 -14 -25 -6 -26 -4 -25 35 1 32 6 43 23 51 57 26 21 111 -39 92 -26 -9
-42 -41 -31 -62 11 -21 5 -43 -11 -43 -7 0 -34 11 -61 25 -27 14 -54 25 -61
25 -9 0 -85 -139 -85 -155 0 -3 29 -19 65 -36 36 -18 65 -33 65 -35 0 -2 -8
-19 -17 -38 -14 -30 -21 -35 -48 -34 -59 2 -115 -48 -115 -103 0 -28 26 -75
52 -93 49 -34 124 -12 154 45 14 28 18 29 83 29 67 0 69 -1 79 -29 12 -33 57
-61 97 -61 14 0 25 -4 25 -10 0 -5 -4 -10 -8 -10 -5 0 -19 -9 -32 -20 -47 -40
-171 -62 -251 -45 -106 23 -208 110 -247 210 -14 37 -30 126 -26 150 2 11 4
35 5 54 3 42 30 111 60 152 16 23 28 29 59 29 21 0 41 4 44 8 6 11 -6 28 -23
34 -9 2 5 14 35 28 52 26 60 28 112 34 18 2 36 6 39 10 4 3 9 2 12 -2 3 -5 18
-8 34 -8z m27 -100 c0 -8 -7 -14 -15 -14 -15 0 -21 21 -9 33 10 9 24 -2 24
-19z m-133 -66 c27 -13 49 -23 51 -24 3 -2 -45 -93 -53 -102 -2 -2 -26 8 -54
23 l-51 25 25 50 c14 28 27 50 30 50 2 0 26 -10 52 -22z m88 -59 c-4 -5 -4
-21 -1 -34 l6 -25 50 20 c28 11 50 16 50 11 0 -5 3 -21 6 -37 l6 -29 -86 0
c-47 0 -86 3 -86 7 0 15 44 98 53 98 4 0 5 -5 2 -11z m51 -132 c2 -2 -9 -28
-25 -57 l-29 -53 -27 53 c-19 37 -23 55 -15 60 11 7 88 5 96 -3z m82 -25 c7
-22 5 -29 -12 -37 -12 -6 -28 -25 -36 -42 -8 -18 -23 -33 -32 -33 -25 0 -23
10 14 84 33 68 50 75 66 28z m-193 -42 c29 -56 31 -70 11 -70 -22 0 -57 67
-50 96 3 13 8 24 10 24 2 0 15 -22 29 -50z m-114 -49 c-11 -21 -17 -41 -14
-45 4 -3 24 -6 46 -6 44 0 45 -13 4 -44 -33 -24 -70 -15 -100 26 -18 24 -18
30 -7 58 14 34 34 49 68 50 l22 0 -19 -39z m405 14 c46 -46 13 -119 -54 -119
-62 0 -97 78 -53 118 19 17 20 17 32 -23 17 -59 42 -56 33 4 -7 52 4 58 42 20z
m-342 -11 c3 -9 6 -17 6 -18 0 -1 -9 -2 -20 -3 -11 -1 -20 0 -20 2 0 11 13 35
20 35 4 0 11 -7 14 -16z"/>
<path d="M747 1534 c-15 -16 -5 -24 29 -24 24 0 34 4 32 13 -5 13 -50 22 -61
11z"/>
</g>
</svg>
